<?xml version="1.0" encoding="UTF-8" standalone="no"?>
<!-- Created with Inkscape (http://www.inkscape.org/) -->

<svg
   version="1.1"
   id="svg1"
   width="1408.96"
   height="1111.6801"
   viewBox="0 0 1408.96 1111.6801"
   sodipodi:docname="Va7_RightSide.svg"
   inkscape:version="1.3.2 (091e20e, 2023-11-25, custom)"
   xmlns:inkscape="http://www.inkscape.org/namespaces/inkscape"
   xmlns:sodipodi="http://sodipodi.sourceforge.net/DTD/sodipodi-0.dtd"
   xmlns:xlink="http://www.w3.org/1999/xlink"
   xmlns="http://www.w3.org/2000/svg"
   xmlns:svg="http://www.w3.org/2000/svg">
  <defs
     id="defs1" />
  <sodipodi:namedview
     id="namedview1"
     pagecolor="#ffffff"
     bordercolor="#000000"
     borderopacity="0.25"
     inkscape:showpageshadow="2"
     inkscape:pageopacity="0.0"
     inkscape:pagecheckerboard="0"
     inkscape:deskcolor="#d1d1d1"
     inkscape:zoom="0.3321599"
     inkscape:cx="746.62835"
     inkscape:cy="-73.759656"
     inkscape:window-width="1920"
     inkscape:window-height="1001"
     inkscape:window-x="-9"
     inkscape:window-y="-9"
     inkscape:window-maximized="1"
     inkscape:current-layer="g1" />
  <g
     inkscape:groupmode="layer"
     inkscape:label="Image"
     id="g1">
    <image
       width="1408.96"
       height="1111.6801"
       preserveAspectRatio="none"
       xlink:href = "imgs/helmet/Va7_RightSide.png"
       id="image1" />
    <path
       style="fill:none;stroke:#fafa00;stroke-width:5"
       d="m 1207.2499,448.57913 -197.1942,48.16957 88.8126,323.63931 194.1836,-66.23316 -28.6007,-79.78085 22.5795,-43.65368 z"
       id="path1"
       inkscape:label="R_R1_Plate2" />
    <path
       style="fill:none;stroke:#fafa00;stroke-width:5"
       d="m 973.92852,543.41298 -278.48034,84.29675 82.79146,286.00683 295.03866,-90.31795 z"
       id="path2"
       sodipodi:nodetypes="ccccc"
       inkscape:label="R_R1_Plate3" />
    <path
       style="fill:none;stroke:#fafa00;stroke-width:5"
       d="m 663.8369,638.24682 -279.98563,69.24376 82.79145,282.99623 278.48034,-75.26496 z"
       id="path3"
       sodipodi:nodetypes="ccccc"
       inkscape:label="R_R1_Plate4" />
    <path
       style="fill:none;stroke:#fafa00;stroke-width:5"
       d="m 353.74529,713.51178 -221.27897,-13.5477 48.16957,287.51213 254.39555,13.54769 z"
       id="path4"
       inkscape:label="R_R1_Plate5"
       sodipodi:nodetypes="ccccc" />
    <path
       style="fill:none;stroke:#fafa00;stroke-width:5"
       d="m 949.45123,283.13232 130.92207,-29.80341 118.461,179.28346 -169.4234,44.26421 z"
       id="path5"
       inkscape:label="R_R2_Plate2"
       sodipodi:nodetypes="ccccc" />
    <path
       style="fill:none;stroke:#fafa00;stroke-width:5"
       d="m 648.97664,367.55441 270.67118,-63.55268 81.51848,189.07708 -296.03436,97.56022 z"
       id="path6"
       sodipodi:nodetypes="ccccc"
       inkscape:label="R_R2_Plate3" />
    <path
       style="fill:none;stroke:#fafa00;stroke-width:5"
       d="m 379.99337,424.69847 c 19.15933,-5.32203 241.62044,-51.09154 241.62044,-51.09154 l 54.28476,228.84755 c 0,0 -290.58316,71.31528 -290.58316,67.05765 0,-4.25763 -5.32204,-244.81366 -5.32204,-244.81366 z"
       id="path7"
       inkscape:label="R_R2_Plate4" />
    <path
       style="fill:none;stroke:#fafa00;stroke-width:5"
       d="m 216.07466,445.98662 139.43735,-19.15933 -3.19323,246.94247 -177.756,-1.06441 z"
       id="path8"
       inkscape:label="R_R2_Plate5" />
    <path
       style="fill:none;stroke:#fafa00;stroke-width:5"
       d="M 369.3493,226.71873 344.86793,395.95948 913.26138,284.19672 824.91558,138.37294 Z"
       id="path9"
       inkscape:label="R_R3_Plate_2et3" />
    <path
       style="fill:none;stroke:#fafa00;stroke-width:5"
       d="m 868.55628,155.40345 74.5085,114.95598 121.34242,-27.67459 -167.11193,-93.66783 z"
       id="path10"
       sodipodi:nodetypes="ccccc"
       inkscape:label="R" />
    <path
       style="fill:none;stroke:#fafa00;stroke-width:5"
       d="m 187.33567,459.82391 -36.18985,211.81704 -38.31866,-2.12882 37.25426,-208.62381 z"
       id="path11"
       inkscape:label="R_R2_Plate6" />
  </g>
</svg>
